<?xml version="1.0" encoding="UTF-8"?>
<svg width="1024px" height="1024px" viewBox="0 0 1024 1024" xmlns="http://www.w3.org/2000/svg" xmlns:xlink="http://www.w3.org/1999/xlink" version="1.1">
 <!-- Generated by Pixelmator Pro 1.5.2 -->
 <path id="Trazado" d="M359.612 287.101 C292.458 294.227 240.645 361.687 220.252 402.669 126.154 592.177 369.378 893.13 457.675 873.052 471.146 869.994 485.094 858.776 515.889 855.875 558.661 851.841 581.603 868.871 607.437 871.85 663.68 878.342 714.552 815.856 750.196 772.088 790.397 722.722 907.357 579.101 862.863 425.487 855.634 400.561 837.222 336.942 777.286 302.068 773.411 299.802 702.564 259.887 636.056 284.835 610.914 294.262 601.578 307.359 570.342 312.028 541.541 316.334 520.694 309.762 497.828 304.098 460.79 295.011 396.446 283.195 359.611 287.103 Z" fill="#ffdd0b" fill-opacity="1" stroke="none"/>
 <path id="Trazado-1" d="M751.795 634.281 C733.474 716.697 658.888 808.142 588.062 811.202 561.912 812.335 545.109 801.004 507.561 809.468 457.618 820.696 413.974 857.168 418.903 871.002 422.301 880.429 448.101 879.104 450.627 878.932 479.599 877.221 487.065 858.538 509.69 855.887 535.376 852.896 546.298 874.604 571.507 883.08 614.244 897.423 662.329 861.7 689.171 841.758 783.212 771.907 909.724 590.353 859.463 413.479 850.625 382.377 834.401 328.321 782.475 294.796 738.57 266.471 667.056 251.583 643.025 278.934 598.237 329.851 788.708 468.25 751.795 634.281 Z" fill="#f4ad28" fill-opacity="1" stroke="none"/>
 <path id="Trazado-2" d="M598.237 907.506 C598.116 907.507 597.974 907.508 597.83 907.508 591.149 907.508 584.71 906.473 578.665 904.551 570.784 902.045 563.419 897.582 556.306 893.264 544.274 885.966 532.899 879.068 515.179 878.534 496.756 877.957 483.885 884.812 471.41 891.427 464.441 895.132 457.813 898.621 450.507 900.82 390.956 918.598 299.046 842.073 234.384 758.344 231.055 754.424 229.03 749.307 229.03 743.716 229.03 731.201 239.176 721.055 251.691 721.055 259.306 721.055 266.043 724.812 270.152 730.572 342.553 824.33 413.843 864.45 437.489 857.392 440.526 856.485 445.182 853.994 450.099 851.399 465.305 843.333 486.118 832.274 516.552 833.271 546.169 834.2 565.577 845.972 579.752 854.572 584.794 857.63 589.564 860.52 592.691 861.506 610.819 867.228 666.337 841.406 732.766 766.071 781.271 711.097 819.94 647.24 841.637 586.273 873.158 497.716 860.898 437.927 845.035 403.358 834.724 380.901 817.842 356.599 799.885 338.345 783.763 321.962 757.964 301.41 726.556 296.605 687.954 290.691 622.727 305.035 593.631 313.443 590.538 314.338 587.49 315.256 584.419 316.184 566.008 321.736 545.149 328.035 515.86 328.41 485.903 328.796 465.067 322.972 444.91 317.341 441.738 316.458 438.542 315.562 435.313 314.702 404.312 306.398 342.168 293.605 305.855 298.296 245.126 306.136 199.578 369.086 183.987 401.276 169.178 431.869 164.069 467.807 168.805 508.21 173.178 545.599 185.8 585.912 206.194 628.003 207.627 630.892 208.464 634.292 208.464 637.888 208.464 650.405 198.317 660.551 185.801 660.551 176.88 660.551 169.164 655.398 165.466 647.905 142.747 601.104 128.788 555.918 123.825 513.466 118.081 464.337 124.619 419.934 143.245 381.492 163.967 338.744 220.29 263.659 300.099 253.337 352.342 246.539 431.71 266.798 447.097 270.922 450.495 271.829 453.839 272.771 457.17 273.699 475.808 278.911 491.886 283.409 515.328 283.103 538.226 282.809 554.338 277.948 571.39 272.803 574.619 271.829 577.847 270.855 581.112 269.914 590.709 267.139 676.466 243.085 733.48 251.786 768.06 257.078 802.22 276.01 832.257 306.532 834.307 308.606 838.625 312.81 844.176 318.996 844.176 318.996 869.85 347.843 886.29 384.405 903.069 421.704 912.032 506.487 885.236 599.19 857.353 695.599 802.254 760.893 766.87 796.006 766.87 796.006 736.165 839.933 670.427 881.492 642.962 898.805 618.82 907.506 598.242 907.506 Z" fill="#000000" fill-opacity="1" stroke="none"/>
 <path id="Trazado-3" d="M217.521 717.42 C209.471 717.413 202.405 713.209 198.389 706.88 L197.692 705.774 C195.552 702.378 194.283 698.248 194.283 693.821 194.283 681.306 204.429 671.16 216.944 671.16 224.933 671.16 231.955 675.294 235.991 681.541 L236.668 682.628 C238.861 686.055 240.162 690.234 240.162 694.717 240.162 707.226 230.028 717.366 217.52 717.378 Z" fill="#000000" fill-opacity="1" stroke="none"/>
 <path id="Trazado-4" d="M773.253 190.5 C776.369 170.875 713.996 128.354 660.632 141.611 583.802 160.69 560.145 286.638 576.267 296.834 587.064 303.632 610.551 255.241 683.281 222.893 736.827 199.134 770.988 204.516 773.253 190.5 Z" fill="#f4ad28" fill-opacity="1" stroke="none"/>
 <path id="Trazado-5" d="M566.863 320.22 C561.629 320.209 556.762 318.643 552.698 315.96 538.831 307.191 534.447 287.906 539.431 257.122 546.411 213.931 576.254 136.399 643.838 119.62 687.867 108.686 738.219 128.038 765.196 152.817 783.698 169.812 785.783 184.632 784.277 194.081 783.008 202.011 778.215 212.924 762.636 219.268 756.257 221.873 748.961 223.46 739.738 225.466 725.123 228.651 705.101 233.012 681.161 243.652 641.369 261.349 617.859 284.134 602.291 299.17 596.195 305.084 591.369 309.752 586.531 313.23 582.984 315.835 575.609 320.221 566.862 320.221 Z M670.681 161.723 C670.614 161.723 670.535 161.723 670.455 161.723 664.904 161.723 659.513 162.408 654.364 163.7 630.822 169.563 614.438 190.298 604.966 206.658 592.649 227.697 584.487 252.583 582.258 279.158 624.04 217.938 670.461 193.749 721.869 183.275 690.123 190.059 713.202 184.87 728.747 181.47 716.671 172.635 702.184 166.333 686.462 163.653 701.304 166.91 686.69 161.721 670.679 161.721 Z" fill="#000000" fill-opacity="1" stroke="none"/>
 <path id="Trazado-6" d="M504.989 325.749 C496.118 320.945 490.43 304.788 495.54 295.156 500.39 285.979 510.768 261.8 502.463 235.525 498.208 222.48 490.632 211.495 480.722 203.207 485.739 207.55 483.714 202.432 483.714 196.839 483.714 184.32 493.862 174.17 506.383 174.17 513.31 174.17 519.512 177.277 523.669 182.172 537.358 198.193 546.754 218.207 549.906 240.233 551.489 240.249 562.808 291.891 535.604 316.319 527.661 323.434 513.793 330.538 504.99 325.746 Z" fill="#000000" fill-opacity="1" stroke="none"/>
</svg>
