<?xml version="1.0" encoding="iso-8859-1"?>
<!-- Uploaded to: SVG Repo, www.svgrepo.com, Generator: SVG Repo Mixer Tools -->
<svg fill="#000000" height="800px" width="800px" version="1.1" id="Layer_1" xmlns="http://www.w3.org/2000/svg" xmlns:xlink="http://www.w3.org/1999/xlink" 
	 viewBox="0 0 512 512" xml:space="preserve">
<g>
	<g>
		<path d="M459.755,323.918V57.469H303.02v52.245c0,40.695-20.687,77.213-52.304,99.03c-31.494-21.686-52.185-57.985-52.185-99.03
			V57.469H41.796v172.291c-14.545-0.611-28.549-3.773-41.796-9.432v33.413c13.473,4.382,27.578,6.891,41.796,7.387v62.79H0v31.347
			h41.796v99.265h156.735v-99.265h104.49v99.265h156.735v-99.265H512v-31.347H459.755z M135.837,141.061
			c0-8.656,7.018-52.245,15.673-52.245c6.338,0,11.798,23.373,14.267,39.288c-3.677,23.842-14.388,45.395-29.941,62.463V141.061z
			 M73.143,141.061c0-8.656,7.018-52.245,15.673-52.245s15.673,43.589,15.673,52.245v74.159c-9.718,5.313-20.246,9.319-31.347,11.79
			V141.061z M104.49,423.184H73.143v-67.918h31.347V423.184z M167.184,423.184h-31.347v-67.918h31.347V423.184z M167.184,323.918
			H73.143v-64.964c10.889-1.901,21.384-4.958,31.347-9.058v37.451h31.347v-54.973c11.861-8.614,22.421-18.906,31.347-30.52V323.918z
			 M198.531,201.881c6.231,8.107,13.258,15.573,20.971,22.269c-6.748,2.175-13.758,3.762-20.971,4.706V201.881z M303.02,323.918
			h-104.49v-63.5c18.387-1.892,36.073-7.103,52.312-15.264c15.99,8.044,33.592,13.327,52.178,15.248V323.918z M303.02,228.837
			c-7.183-0.943-14.174-2.503-20.904-4.658c4.058-3.525,7.954-7.272,11.657-11.251c3.267-3.509,6.351-7.152,9.247-10.915V228.837z
			 M334.367,141.061c0-8.656,7.018-52.245,15.673-52.245s15.673,43.589,15.673,52.245v79.198c-9.92,4.228-20.456,7.132-31.347,8.57
			V141.061z M365.714,423.184h-31.347v-67.918h31.347V423.184z M428.408,423.184h-31.347v-67.918h31.347V423.184z M428.408,323.918
			h-94.041v-63.523c10.754-1.121,21.251-3.389,31.347-6.694v33.645h31.347v-48.024c11.483-6.943,22.031-15.405,31.347-25.169
			V323.918z M428.408,158.976l-0.063-0.028c-7.365,16.375-18.153,30.539-31.284,41.819v-59.706c0-8.656,7.018-52.245,15.673-52.245
			s15.673,43.589,15.673,52.245V158.976z"/>
	</g>
</g>
</svg>