<?xml version="1.0" encoding="iso-8859-1"?>
<!-- Uploaded to: SVG Repo, www.svgrepo.com, Generator: SVG Repo Mixer Tools -->
<svg height="800px" width="800px" version="1.1" id="Layer_1" xmlns="http://www.w3.org/2000/svg" xmlns:xlink="http://www.w3.org/1999/xlink" 
	 viewBox="0 0 512 512" xml:space="preserve">
<g transform="translate(1 1)">
	<path style="fill:#FFA800;" d="M502.467,255c0,136.533-110.933,247.467-247.467,247.467S7.533,391.533,7.533,255
		S118.467,7.533,255,7.533S502.467,118.467,502.467,255"/>
	<path style="fill:#FFE100;" d="M476.867,255c0,136.533-104.96,247.467-234.667,247.467S7.533,391.533,7.533,255
		S112.493,7.533,242.2,7.533S476.867,118.467,476.867,255"/>
	<g>
		<path style="fill:#FFA800;" d="M119.32,144.92c-5.12-2.56-7.68-6.827-7.68-12.8c0-5.973-1.707-11.947-5.12-18.773
			c-5.973-11.093-17.067-18.773-29.013-20.48c-2.56,0-5.973-0.853-9.387,0c-26.453,30.72-45.227,67.413-54.613,108.373
			c2.56,0.853,4.267,0.853,6.827,0.853h82.773c15.36,0,29.867-11.093,31.573-26.453C137.24,161.987,129.56,150.04,119.32,144.92"/>
		<path style="fill:#FFA800;" d="M374.467,425.667h25.6v-102.4H109.933v102.4h25.6v46.08c35.84,19.627,75.947,30.72,119.467,30.72
			s83.627-11.093,119.467-30.72V425.667z"/>
	</g>
	<path style="fill:#FFFFFF;" d="M255,502.467c2.56,0,4.267,0,6.827,0C134.68,499.053,33.133,389.827,33.133,255
		S134.68,10.947,261.827,7.533c-2.56,0-4.267,0-6.827,0C118.467,7.533,7.533,118.467,7.533,255S118.467,502.467,255,502.467"/>
	<g>
		<path style="fill:#FFA800;" d="M374.467,471.747c22.187-11.947,42.667-28.16,59.733-46.08h-59.733V471.747z"/>
		<path style="fill:#FFA800;" d="M135.533,471.747v-46.08H75.8C92.867,443.587,113.347,459.8,135.533,471.747"/>
		<polygon style="fill:#FFA800;" points="169.667,289.133 340.333,289.133 340.333,255 169.667,255 		"/>
	</g>
	<g>
		<polygon style="fill:#FFE100;" points="237.933,502.467 272.067,502.467 272.067,408.6 237.933,408.6 		"/>
		<polygon style="fill:#FFE100;" points="152.6,374.467 178.2,374.467 178.2,348.867 152.6,348.867 		"/>
		<polygon style="fill:#FFE100;" points="212.333,374.467 237.933,374.467 237.933,348.867 212.333,348.867 		"/>
		<polygon style="fill:#FFE100;" points="272.067,374.467 297.667,374.467 297.667,348.867 272.067,348.867 		"/>
		<polygon style="fill:#FFE100;" points="331.8,374.467 357.4,374.467 357.4,348.867 331.8,348.867 		"/>
		<path style="fill:#FFE100;" d="M306.2,497.347c11.947-2.56,23.04-5.973,34.133-9.387V408.6H306.2V497.347z"/>
		<path style="fill:#FFE100;" d="M169.667,487.107c11.093,4.267,22.187,7.68,34.133,9.387V408.6h-34.133V487.107z"/>
	</g>
	<g>
		<path style="fill:#0C0C0C;" d="M365.933,331.8H144.067v-51.2h221.867V331.8z M161.133,314.733h187.733v-17.067H161.133V314.733z"
			/>
		<path style="fill:#0C0C0C;" d="M348.867,297.667H161.133v-51.2h187.733V297.667z M178.2,280.6h153.6v-17.067H178.2V280.6z"/>
		<path style="fill:#0C0C0C;" d="M280.6,511h-51.2V400.067h51.2V511z M246.467,493.933h17.067v-76.8h-17.067V493.933z"/>
		<path style="fill:#0C0C0C;" d="M280.6,263.533h-51.2V118.467h51.2V263.533z M246.467,246.467h17.067V135.533h-17.067V246.467z"/>
		<path style="fill:#0C0C0C;" d="M255,135.533c-5.12,0-8.533-3.413-8.533-8.533V41.667c0-5.12,3.413-8.533,8.533-8.533
			s8.533,3.413,8.533,8.533V127C263.533,132.12,260.12,135.533,255,135.533z"/>
		<path style="fill:#0C0C0C;" d="M272.067,237.933h-34.133c-5.12,0-8.533-3.413-8.533-8.533c0-5.12,3.413-8.533,8.533-8.533h34.133
			c5.12,0,8.533,3.413,8.533,8.533C280.6,234.52,277.187,237.933,272.067,237.933z"/>
		<path style="fill:#0C0C0C;" d="M272.067,212.333h-34.133c-5.12,0-8.533-3.413-8.533-8.533c0-5.12,3.413-8.533,8.533-8.533h34.133
			c5.12,0,8.533,3.413,8.533,8.533C280.6,208.92,277.187,212.333,272.067,212.333z"/>
		<path style="fill:#0C0C0C;" d="M272.067,186.733h-34.133c-5.12,0-8.533-3.413-8.533-8.533c0-5.12,3.413-8.533,8.533-8.533h34.133
			c5.12,0,8.533,3.413,8.533,8.533C280.6,183.32,277.187,186.733,272.067,186.733z"/>
		<path style="fill:#0C0C0C;" d="M272.067,161.133h-34.133c-5.12,0-8.533-3.413-8.533-8.533c0-5.12,3.413-8.533,8.533-8.533h34.133
			c5.12,0,8.533,3.413,8.533,8.533C280.6,157.72,277.187,161.133,272.067,161.133z"/>
		<path style="fill:#0C0C0C;" d="M186.733,383h-42.667v-42.667h42.667V383z M161.133,365.933h8.533V357.4h-8.533V365.933z"/>
		<path style="fill:#0C0C0C;" d="M246.467,383H203.8v-42.667h42.667V383z M220.867,365.933h8.533V357.4h-8.533V365.933z"/>
		<path style="fill:#0C0C0C;" d="M306.2,383h-42.667v-42.667H306.2V383z M280.6,365.933h8.533V357.4H280.6V365.933z"/>
		<path style="fill:#0C0C0C;" d="M365.933,383h-42.667v-42.667h42.667V383z M340.333,365.933h8.533V357.4h-8.533V365.933z"/>
		<path style="fill:#0C0C0C;" d="M246.467,263.533h-59.733V203.8H203.8v-34.133h42.667V263.533z M203.8,246.467h25.6v-59.733h-8.533
			v34.133H203.8V246.467z"/>
		<path style="fill:#0C0C0C;" d="M323.267,263.533h-59.733v-93.867H306.2V203.8h17.067V263.533z M280.6,246.467h25.6v-25.6h-17.067
			v-34.133H280.6V246.467z"/>
		<path style="fill:#0C0C0C;" d="M255,511C114.2,511-1,395.8-1,255S114.2-1,255-1s256,115.2,256,256S395.8,511,255,511z M255,16.067
			C123.587,16.067,16.067,123.587,16.067,255S123.587,493.933,255,493.933S493.933,386.413,493.933,255S386.413,16.067,255,16.067z"
			/>
		<path style="fill:#0C0C0C;" d="M365.933,486.253v-69.12h87.893l-13.653,14.507c-17.92,18.773-39.253,34.987-61.44,47.787
			L365.933,486.253z M383,434.2v22.187c10.24-6.827,20.48-14.507,29.867-22.187H383z"/>
		<path style="fill:#0C0C0C;" d="M144.067,486.253l-12.8-6.827c-23.04-12.8-43.52-29.013-61.44-47.787l-13.653-14.507h87.893
			V486.253z M97.133,434.2c9.387,8.533,19.627,16.213,29.867,22.187V434.2H97.133z"/>
		<path style="fill:#0C0C0C;" d="M255,511c-43.52,0-86.187-11.093-123.733-31.573l-4.267-2.56V434.2h-25.6V314.733h307.2V434.2H383
			v42.667l-4.267,2.56C341.187,499.907,298.52,511,255,511z M144.067,466.627C178.2,484.547,216.6,493.933,255,493.933
			s76.8-9.387,110.933-27.307v-49.493h25.6V331.8H118.467v85.333h25.6V466.627z"/>
		<path style="fill:#0C0C0C;" d="M297.667,507.587v-107.52h51.2v93.013l-5.973,1.707c-11.093,4.267-23.04,7.68-34.987,10.24
			L297.667,507.587z M314.733,417.133v69.12c5.973-1.707,11.093-3.413,17.067-5.12v-64H314.733z"/>
		<path style="fill:#0C0C0C;" d="M212.333,507.587l-10.24-2.56c-11.947-2.56-23.893-5.973-34.987-10.24l-5.973-1.707v-93.013h51.2
			V507.587z M178.2,481.133c5.973,1.707,11.093,3.413,17.067,5.12v-69.12H178.2V481.133z"/>
		<path style="fill:#0C0C0C;" d="M103.96,210.627H20.333c-3.413,0-5.973,0-9.387-0.853l-7.68-1.707l1.707-8.533
			c9.387-40.96,29.013-79.36,56.32-111.787l2.56-3.413h3.413c3.413,0,6.827,0,10.24,0c14.507,1.707,28.16,11.093,35.84,24.747
			c4.267,7.68,5.973,14.507,5.973,23.04c0,1.707,0.853,3.413,3.413,5.12c14.507,7.68,23.04,23.04,20.48,38.4
			C141.507,195.267,124.44,210.627,103.96,210.627z M24.6,193.56h79.36c11.947,0,22.187-8.533,23.04-18.773
			c0.853-9.387-3.413-17.92-11.947-21.333l0,0c-7.68-4.267-12.8-11.947-11.947-19.627c0-5.12-0.853-9.387-4.267-14.507
			c-5.12-8.533-13.653-15.36-23.04-16.213c-1.707,0-2.56,0-4.267,0C49.347,127.853,33.133,159.427,24.6,193.56z"/>
	</g>
</g>
</svg>