<?xml version="1.0" encoding="UTF-8"?>
<svg width="24px" height="24px" viewBox="0 0 24 24" xmlns="http://www.w3.org/2000/svg" xmlns:xlink="http://www.w3.org/1999/xlink" version="1.1">
 <!-- Generated by Pixelmator Pro 1.5.2 -->
 <path id="Trazado" d="M22.5 12 L22.5 18.68 C22.5 20.79 20.79 22.5 18.68 22.5 L5.32 22.5 C3.21 22.5 1.5 20.79 1.5 18.68 L1.5 5.32 C1.5 3.21 3.21 1.5 5.32 1.5 L18.68 1.5 C20.79 1.5 22.5 3.21 22.5 5.32 Z" fill="none" stroke="#020202" stroke-width="1.91" stroke-opacity="1" stroke-linejoin="round"/>
 <path id="Trazado-1" d="M16.77 12 C16.77 14.634 14.634 16.77 12 16.77 9.365 16.77 7.23 14.634 7.23 12 7.23 9.366 9.365 7.23 12 7.23 14.634 7.23 16.77 9.366 16.77 12 Z" fill="none" stroke="#020202" stroke-width="1.91" stroke-opacity="1" stroke-linejoin="round"/>
 <path id="Trazado-2" d="M19.63 5.8 C19.63 6.59 18.99 7.23 18.2 7.23 17.41 7.23 16.77 6.59 16.77 5.8 16.77 5.01 17.41 4.37 18.2 4.37 18.99 4.37 19.63 5.01 19.63 5.8 Z" fill="#020202" fill-opacity="1" stroke="none"/>
</svg>
