<?xml version="1.0" encoding="UTF-8"?>
<svg width="36px" height="36px" viewBox="0 0 36 36" xmlns="http://www.w3.org/2000/svg" xmlns:xlink="http://www.w3.org/1999/xlink" version="1.1">
 <!-- Generated by Pixelmator Pro 1.5.2 -->
 <path id="Trazado" d="M28 4 L12 4 C11.469 4 10.961 4.211 10.586 4.586 10.211 4.961 10 5.469 10 6 L28 6 28 30 12 30 12 20.2 10 20.2 10 30 C10 30.53 10.211 31.039 10.586 31.414 10.961 31.789 11.469 32 12 32 L28 32 C28.53 32 29.039 31.789 29.414 31.414 29.789 31.039 30 30.53 30 30 L30 6 C30 5.469 29.789 4.961 29.414 4.586 29.039 4.211 28.53 4 28 4 Z" fill="#ffffff" fill-opacity="1" stroke="none"/>
 <path id="Trazado-1" d="M15.12 18.46 C14.835 18.704 14.71 19.088 14.798 19.453 14.886 19.819 15.171 20.104 15.536 20.192 15.902 20.28 16.286 20.155 16.53 19.87 L22.32 14.08 16.54 8.29 C16.143 7.95 15.552 7.973 15.182 8.343 14.813 8.712 14.79 9.303 15.13 9.7 L18.5 13 4 13 C3.735 13 3.48 13.105 3.293 13.293 3.105 13.48 3 13.735 3 14 3 14.265 3.105 14.52 3.293 14.707 3.48 14.895 3.735 15 4 15 L18.5 15 Z" fill="#ffffff" fill-opacity="1" stroke="none"/>
 <path id="Trazado-2" d="M0 0 L36 0 36 36 0 36 Z" fill="none" stroke="none"/>
</svg>
