<?xml version="1.0" encoding="UTF-8"?>
<svg width="36px" height="36px" viewBox="0 0 36 36" xmlns="http://www.w3.org/2000/svg" xmlns:xlink="http://www.w3.org/1999/xlink" version="1.1">
 <!-- Generated by Pixelmator Pro 1.5.2 -->
 <path id="Trazado" d="M7 6 L23 6 23 15.8 25 15.8 25 6 C25 5.469 24.789 4.961 24.414 4.586 24.039 4.211 23.53 4 23 4 L7 4 C6.469 4 5.961 4.211 5.586 4.586 5.211 4.961 5 5.469 5 6 L5 30 C5 30.53 5.211 31.039 5.586 31.414 5.961 31.789 6.469 32 7 32 L23 32 C23.53 32 24.039 31.789 24.414 31.414 24.789 31.039 25 30.53 25 30 L7 30 Z" fill="#ffffff" fill-opacity="1" stroke="none"/>
 <path id="Trazado-1" d="M28.16 17.28 C27.763 16.94 27.172 16.963 26.802 17.333 26.433 17.702 26.41 18.293 26.75 18.69 L30.13 22 15.63 22 C15.365 22 15.11 22.105 14.923 22.293 14.735 22.48 14.63 22.735 14.63 23 14.63 23.265 14.735 23.52 14.923 23.707 15.11 23.895 15.365 24 15.63 24 L30.13 24 26.75 27.46 C26.465 27.704 26.34 28.088 26.428 28.453 26.516 28.819 26.801 29.104 27.167 29.192 27.532 29.28 27.916 29.155 28.16 28.87 L34 23.07 Z" fill="#ffffff" fill-opacity="1" stroke="none"/>
 <path id="Trazado-2" d="M0 0 L36 0 36 36 0 36 Z" fill="none" stroke="none"/>
</svg>
