<?xml version="1.0" encoding="UTF-8"?>
<svg width="24px" height="24px" viewBox="0 0 24 24" xmlns="http://www.w3.org/2000/svg" xmlns:xlink="http://www.w3.org/1999/xlink" version="1.1">
 <!-- Generated by Pixelmator Pro 1.5.2 -->
 <path id="Trazado" d="M12.94 1.61 L12.94 15.78 C12.94 16.531 12.642 17.25 12.111 17.781 11.58 18.312 10.86 18.61 10.11 18.61 9.359 18.61 8.639 18.312 8.109 17.781 7.578 17.25 7.28 16.531 7.28 15.78 7.28 14.215 8.545 12.945 10.11 12.94 L10.11 9.17 C8.357 9.17 6.675 9.866 5.436 11.106 4.196 12.346 3.5 14.027 3.5 15.78 3.5 17.533 4.196 19.214 5.436 20.454 6.675 21.693 8.357 22.39 10.11 22.39 11.863 22.39 13.544 21.693 14.784 20.454 16.023 19.214 16.72 17.533 16.72 15.78 L16.72 9.17 16.92 9.27 C18.033 9.821 19.258 10.109 20.5 10.11 L20.5 6.33 20.39 6.33 C18.232 5.792 16.718 3.854 16.72 1.63 L12.94 1.63 Z" fill="none" stroke="#020202" stroke-width="1.89" stroke-opacity="1" stroke-linejoin="round"/>
</svg>
